Coordinates
version=1
nRows=29
nColumns=24
inDegrees=yes

Units are S.I. units (second, meters, Newtons, ...)
Angles are in degrees.

endheader
time	pelvis_tilt	pelvis_list	pelvis_rotation	pelvis_tx	pelvis_ty	pelvis_tz	hip_flexion_r	hip_adduction_r	hip_rotation_r	knee_angle_r	ankle_angle_r	subtalar_angle_r	mtp_angle_r	hip_flexion_l	hip_adduction_l	hip_rotation_l	knee_angle_l	ankle_angle_l	subtalar_angle_l	mtp_angle_l	lumbar_extension	lumbar_bending	lumbar_rotation
      5.46000000	      8.36429593	      3.59377714	     -0.98115361	      0.09051896	      0.75162490	     -0.18568104	     14.98102051	     -1.73971408	      1.89474374	    -61.24098480	      5.64568907	    -20.73938475	      0.00000000	     -2.98106124	      8.72635162	     -0.02271223	     -8.67150703	      9.07834019	    -16.63250306	      0.00000000	    -28.80220407	     -5.03544820	     -1.74034165
      5.47000000	      8.31328914	      3.29237498	     -0.65280371	      0.09967322	      0.75242937	     -0.18696877	     15.79526842	     -1.38825934	      1.67422482	    -59.10059441	      6.22287651	    -21.09615469	      0.00000000	     -4.01169380	      8.49116625	      0.32169239	     -8.15049116	      9.45372476	    -16.57106661	      0.00000000	    -28.74207281	     -4.48179000	     -2.20708627
      5.48000000	      8.30957166	      3.04871575	     -0.35262441	      0.10877910	      0.75310337	     -0.18815162	     16.40069323	     -1.08853339	      1.52392935	    -56.58905389	      6.37908659	    -21.94854349	      0.00000000	     -5.10996571	      8.30546609	      0.68959482	     -7.58038319	      9.71878633	    -16.63653606	      0.00000000	    -28.75362379	     -4.00374490	     -2.66583211
      5.49000000	      8.24328454	      2.87639958	     -0.03093550	      0.11784720	      0.75349903	     -0.18926639	     16.93034580	     -0.89538563	      1.34681944	    -53.74770027	      6.29984192	    -23.02736563	      0.00000000	     -6.09520458	      8.17503244	      1.05233052	     -7.08221570	     10.04816304	    -16.66934017	      0.00000000	    -28.71256918	     -3.60898207	     -3.17929199
      5.50000000	      8.15595091	      2.79138044	      0.29971401	      0.12690234	      0.75366393	     -0.19032584	     17.32794035	     -0.82169845	      1.16778263	    -50.57352707	      6.03414783	    -24.26982432	      0.00000000	     -7.02327870	      8.12126406	      1.39379345	     -6.64179996	     10.41173385	    -16.66174156	      0.00000000	    -28.66402976	     -3.30228674	     -3.73110545
      5.51000000	      8.05329392	      2.78423386	      0.63159018	      0.13596563	      0.75360464	     -0.19128472	     17.58129026	     -0.85067286	      0.98377669	    -47.07086191	      5.61391388	    -25.60530008	      0.00000000	     -7.90481475	      8.13122310	      1.72464414	     -6.25826190	     10.79942052	    -16.62063335	      0.00000000	    -28.61146694	     -3.09961370	     -4.30655109
      5.52000000	      7.88721442	      2.87862174	      0.97222358	      0.14505099	      0.75325695	     -0.19218390	     17.75175621	     -1.00849740	      0.80380312	    -43.27676406	      5.05752763	    -26.91271575	      0.00000000	     -8.68709887	      8.23436579	      2.04482896	     -5.93893631	     11.19847037	    -16.56198383	      0.00000000	    -28.49664274	     -3.01084178	     -4.93378966
      5.53000000	      7.70509772	      3.05599679	      1.30185509	      0.15417798	      0.75267718	     -0.19301208	     17.78275445	     -1.26498278	      0.63612340	    -39.19957380	      4.51815612	    -27.91751098	      0.00000000	     -9.44206403	      8.41446246	      2.36320630	     -5.65495414	     11.62589988	    -16.47678509	      0.00000000	    -28.37274004	     -3.02375241	     -5.57153232
      5.54000000	      7.53188404	      3.31184781	      1.60411894	      0.16338493	      0.75187907	     -0.19376940	     17.66551720	     -1.62254520	      0.42993111	    -34.88679187	      4.17969068	    -28.36598918	      0.00000000	    -10.22516257	      8.66830906	      2.66550450	     -5.36065330	     12.06771483	    -16.37487828	      0.00000000	    -28.25928659	     -3.13851228	     -6.17795117
      5.55000000	      7.21397184	      3.69429905	      1.92505084	      0.17265185	      0.75068026	     -0.19452111	     17.61591993	     -2.14113655	      0.14171730	    -30.44664077	      3.95733060	    -28.27475099	      0.00000000	    -10.83217014	      9.05004065	      3.01295500	     -5.13557937	     12.51972023	    -16.27034041	      0.00000000	    -27.97915128	     -3.39560164	     -6.85506018
      5.56000000	      6.96404543	      4.11466445	      2.18957057	      0.18202394	      0.74934720	     -0.19516981	     17.35913372	     -2.64347521	     -0.02273300	    -25.81970052	      3.64698775	    -27.87688200	      0.00000000	    -11.54779492	      9.46366920	      3.32351521	     -4.87515659	     12.97543084	    -16.17052529	      0.00000000	    -27.77581330	     -3.71640747	     -7.46627086
      5.57000000	      6.73566816	      4.59308393	      2.39597411	      0.19151126	      0.74781504	     -0.19571879	     16.99988994	     -3.16051882	     -0.09068235	    -21.11835731	      3.34136989	    -27.08642893	      0.00000000	    -12.29910814	      9.93499201	      3.61606684	     -4.62797652	     13.44068816	    -16.07928071	      0.00000000	    -27.59114436	     -4.13473347	     -8.02332470
      5.58000000	      6.55750042	      5.10680410	      2.53361157	      0.20113898	      0.74612134	     -0.19619192	     16.59427877	     -3.70274823	     -0.32664802	    -16.51125374	      3.64299987	    -25.16583062	      0.00000000	    -13.10734067	     10.44171142	      3.81570475	     -4.40562408	     13.84573831	    -15.97052766	      0.00000000	    -27.45090143	     -4.61461958	     -8.48205932
      5.59000000	      6.31339625	      5.69164102	      2.67506006	      0.21087706	      0.74415900	     -0.19667316	     16.34389911	     -4.31289586	     -0.82739209	    -12.19981062	      4.27817301	    -22.37432405	      0.00000000	    -13.84491803	     11.01925780	      4.13737421	     -4.23461026	     14.38690397	    -15.82112217	      0.00000000	    -27.22629004	     -5.17618475	     -8.97804298
      5.60000000	      6.11176343	      6.23368908	      2.77879066	      0.22073982	      0.74210016	     -0.19707053	     16.09976044	     -4.80937225	     -1.35409558	     -8.19205219	      5.14214304	    -19.09355175	      0.00000000	    -14.59587451	     11.54247757	      4.41792481	     -4.14547168	     14.91777990	    -15.68337064	      0.00000000	    -27.03521725	     -5.70593512	     -9.41828247
      5.61000000	      5.94206483	      6.72264112	      2.84661651	      0.23070298	      0.73998959	     -0.19738076	     15.90005600	     -5.18384244	     -1.85925144	     -4.59318109	      6.12839031	    -15.51388991	      0.00000000	    -15.34579293	     12.00284680	      4.70841799	     -4.13820132	     15.45531670	    -15.54078574	      0.00000000	    -26.87251461	     -6.19288080	     -9.79684263
      5.62000000	      5.80907894	      7.11522929	      2.87932013	      0.24074887	      0.73787754	     -0.19759225	     15.71830434	     -5.39710655	     -2.12245200	     -1.42859369	      7.04962636	    -12.10137095	      0.00000000	    -16.08072636	     12.35533407	      5.01276368	     -4.23270194	     16.00900949	    -15.41693426	      0.00000000	    -26.74077436	     -6.59101990	    -10.08971416
      5.63000000	      5.71127827	      7.40866443	      2.87910485	      0.25086254	      0.73580576	     -0.19770499	     15.53712376	     -5.47216696	     -2.00686936	      1.27194561	      7.80321806	     -9.22965017	      0.00000000	    -16.77987439	     12.60035456	      5.31702417	     -4.45507969	     16.53622801	    -15.31887794	      0.00000000	    -26.64154367	     -6.89384918	    -10.30915249
      5.64000000	      5.60615595	      7.65452457	      2.82449610	      0.26103749	      0.73371518	     -0.19771148	     15.33631940	     -5.50408139	     -0.96426553	      3.55996228	      8.01792845	     -7.90426382	      0.00000000	    -17.39436422	     12.80762129	      5.65609240	     -4.81152922	     17.05637099	    -15.33836791	      0.00000000	    -26.52191407	     -7.17306891	    -10.46494962
      5.65000000	      5.60071444	      7.67234619	      2.79029546	      0.27129986	      0.73189702	     -0.19768226	     15.25489658	     -5.26817979	     -0.91934456	      4.96517494	      8.87563789	     -5.52444476	      0.00000000	    -18.02904599	     12.75734347	      5.94348504	     -5.30481444	     17.54640781	    -15.20879124	      0.00000000	    -26.50282246	     -7.17590916	    -10.54932946
      5.66000000	      5.55915617	      7.67853000	      2.72580876	      0.28161945	      0.73009117	     -0.19757846	     15.19512952	     -5.04427226	     -0.04199206	      5.85252735	      9.22628201	     -4.84338431	      0.00000000	    -18.54523292	     12.71146249	      6.27442840	     -5.94113972	     17.94339094	    -15.22651032	      0.00000000	    -26.44025737	     -7.18657800	    -10.60946179
      5.67000000	      5.55775333	      7.56807105	      2.67488285	      0.29207934	      0.72847819	     -0.19743600	     15.17214263	     -4.68401965	      0.62906857	      6.05152238	      9.61647441	     -4.46527470	      0.00000000	    -19.05060269	     12.53558949	      6.58439521	     -6.67524778	     18.27934239	    -15.21143279	      0.00000000	    -26.40079310	     -7.06027405	    -10.64863723
      5.68000000	      5.55733445	      7.38811222	      2.66932207	      0.30270015	      0.72703030	     -0.19728856	     15.18654575	     -4.24780812	      1.14115109	      5.65687387	      9.97705971	     -4.39318008	      0.00000000	    -19.49190462	     12.27496684	      6.87574555	     -7.54285630	     18.48886376	    -15.18502175	      0.00000000	    -26.33952775	     -6.84163616	    -10.70864706
      5.69000000	      5.57860544	      7.16254892	      2.70300616	      0.31350376	      0.72578962	     -0.19712318	     15.21140236	     -3.76240469	      1.49981216	      4.74908828	     10.24194330	     -4.57218947	      0.00000000	    -19.92823720	     11.94947755	      7.14646557	     -8.47872063	     18.59335049	    -15.08808005	      0.00000000	    -26.28659826	     -6.57024458	    -10.78451679
      5.70000000	      5.58689645	      6.89139430	      2.81031239	      0.32456382	      0.72471813	     -0.19697636	     15.07531049	     -3.28300675	      2.43226397	      3.76869980	      9.79679810	     -5.99679794	      0.00000000	    -20.16808604	     11.51758035	      6.72938844	     -9.74746270	     19.10687891	    -13.82890081	      0.00000000	    -26.16621757	     -6.21517459	    -10.93555966
      5.71000000	      5.58036064	      6.59504483	      2.97703541	      0.33580864	      0.72388821	     -0.19686560	     14.90490290	     -2.79818197	      3.36348295	      2.65110738	      9.06966527	     -7.71941116	      0.00000000	    -20.39438543	     11.05058772	      6.57512556	    -11.03458967	     19.16107452	    -13.08256757	      0.00000000	    -26.00219022	     -5.81454113	    -11.11714612
      5.72000000	      5.60486548	      6.22358856	      3.20522240	      0.34722930	      0.72342101	     -0.19677289	     14.60641974	     -2.26213505	      4.35882718	      1.58507321	      7.92286160	     -9.80169976	      0.00000000	    -20.54685552	     10.46324412	      6.21902871	    -12.49724215	     19.08031292	    -12.11901141	      0.00000000	    -25.84070706	     -5.31085792	    -11.32499432
      5.73000000	      5.63709380	      5.77037294	      3.44741032	      0.35876279	      0.72333725	     -0.19665962	     14.24214546	     -1.65859110	      5.46295399	      0.60015232	      6.41806779	    -12.17188204	      0.00000000	    -20.55036538	      9.75858623	      5.56598878	    -14.18723407	     18.81024820	    -10.94988989	      0.00000000	    -25.66004912	     -4.71127701	    -11.52314321
      5.74000000	      5.70219961	      5.21408042	      3.66937950	      0.37035968	      0.72369224	     -0.19652496	     13.84554895	     -0.95186035	      6.51329503	     -0.36149100	      4.79317977	    -14.50059946	      0.00000000	    -20.40039749	      8.92148099	      4.63546154	    -16.13657693	     18.31968572	     -9.64920443	      0.00000000	    -25.49484311	     -3.99634005	    -11.66771964
